<mxfile host="app.diagrams.net" agent="Mozilla/5.0 (Windows NT 10.0; Win64; x64) AppleWebKit/537.36 (KHTML, like Gecko) Chrome/130.0.0.0 Safari/537.36" version="24.8.3">
  <diagram name="Page-1" id="xyBW_e3IrZpTnphnCZ7u">
    <mxGraphModel grid="1" page="1" gridSize="10" guides="1" tooltips="1" connect="1" arrows="1" fold="1" pageScale="1" pageWidth="850" pageHeight="1100" math="0" shadow="0">
      <root>
        <mxCell id="0" />
        <mxCell id="1" parent="0" />
        <mxCell id="MN59UqQyz3F3yh8Ifb5z-1" value="" style="shape=umlLifeline;perimeter=lifelinePerimeter;whiteSpace=wrap;html=1;container=1;dropTarget=0;collapsible=0;recursiveResize=0;outlineConnect=0;portConstraint=eastwest;newEdgeStyle={&quot;curved&quot;:0,&quot;rounded&quot;:0};participant=umlActor;strokeColor=default;align=center;verticalAlign=bottom;fontFamily=Helvetica;fontSize=12;fontColor=default;fillColor=default;" vertex="1" parent="1">
          <mxGeometry x="170" y="80" width="20" height="1150" as="geometry" />
        </mxCell>
        <mxCell id="MN59UqQyz3F3yh8Ifb5z-2" value="" style="html=1;points=[[0,0,0,0,5],[0,1,0,0,-5],[1,0,0,0,5],[1,1,0,0,-5]];perimeter=orthogonalPerimeter;outlineConnect=0;targetShapes=umlLifeline;portConstraint=eastwest;newEdgeStyle={&quot;curved&quot;:0,&quot;rounded&quot;:0};strokeColor=default;align=center;verticalAlign=bottom;fontFamily=Helvetica;fontSize=12;fontColor=default;fillColor=default;" vertex="1" parent="MN59UqQyz3F3yh8Ifb5z-1">
          <mxGeometry x="5" y="80" width="10" height="240" as="geometry" />
        </mxCell>
        <mxCell id="MN59UqQyz3F3yh8Ifb5z-3" value="" style="html=1;points=[[0,0,0,0,5],[0,1,0,0,-5],[1,0,0,0,5],[1,1,0,0,-5]];perimeter=orthogonalPerimeter;outlineConnect=0;targetShapes=umlLifeline;portConstraint=eastwest;newEdgeStyle={&quot;curved&quot;:0,&quot;rounded&quot;:0};strokeColor=default;align=center;verticalAlign=bottom;fontFamily=Helvetica;fontSize=12;fontColor=default;fillColor=default;" vertex="1" parent="MN59UqQyz3F3yh8Ifb5z-1">
          <mxGeometry x="5" y="560" width="10" height="45" as="geometry" />
        </mxCell>
        <mxCell id="MN59UqQyz3F3yh8Ifb5z-4" value="" style="html=1;points=[[0,0,0,0,5],[0,1,0,0,-5],[1,0,0,0,5],[1,1,0,0,-5]];perimeter=orthogonalPerimeter;outlineConnect=0;targetShapes=umlLifeline;portConstraint=eastwest;newEdgeStyle={&quot;curved&quot;:0,&quot;rounded&quot;:0};strokeColor=default;align=center;verticalAlign=bottom;fontFamily=Helvetica;fontSize=12;fontColor=default;fillColor=default;" vertex="1" parent="MN59UqQyz3F3yh8Ifb5z-1">
          <mxGeometry x="5" y="340" width="10" height="50" as="geometry" />
        </mxCell>
        <mxCell id="MN59UqQyz3F3yh8Ifb5z-52" value="" style="html=1;points=[[0,0,0,0,5],[0,1,0,0,-5],[1,0,0,0,5],[1,1,0,0,-5]];perimeter=orthogonalPerimeter;outlineConnect=0;targetShapes=umlLifeline;portConstraint=eastwest;newEdgeStyle={&quot;curved&quot;:0,&quot;rounded&quot;:0};" vertex="1" parent="MN59UqQyz3F3yh8Ifb5z-1">
          <mxGeometry x="5" y="710" width="10" height="180" as="geometry" />
        </mxCell>
        <mxCell id="MN59UqQyz3F3yh8Ifb5z-5" value=":User" style="text;align=center;fontStyle=1;verticalAlign=middle;spacingLeft=3;spacingRight=3;strokeColor=none;rotatable=0;points=[[0,0.5],[1,0.5]];portConstraint=eastwest;html=1;fontFamily=Helvetica;fontSize=12;fontColor=default;" vertex="1" parent="1">
          <mxGeometry x="140" y="120" width="80" height="20" as="geometry" />
        </mxCell>
        <mxCell id="MN59UqQyz3F3yh8Ifb5z-6" value="" style="shape=umlLifeline;perimeter=lifelinePerimeter;whiteSpace=wrap;html=1;container=1;dropTarget=0;collapsible=0;recursiveResize=0;outlineConnect=0;portConstraint=eastwest;newEdgeStyle={&quot;curved&quot;:0,&quot;rounded&quot;:0};participant=umlBoundary;strokeColor=default;align=center;verticalAlign=bottom;fontFamily=Helvetica;fontSize=12;fontColor=default;fillColor=default;" vertex="1" parent="1">
          <mxGeometry x="330" y="80" width="50" height="1150" as="geometry" />
        </mxCell>
        <mxCell id="MN59UqQyz3F3yh8Ifb5z-7" value="" style="html=1;points=[[0,0,0,0,5],[0,1,0,0,-5],[1,0,0,0,5],[1,1,0,0,-5]];perimeter=orthogonalPerimeter;outlineConnect=0;targetShapes=umlLifeline;portConstraint=eastwest;newEdgeStyle={&quot;curved&quot;:0,&quot;rounded&quot;:0};strokeColor=default;align=center;verticalAlign=bottom;fontFamily=Helvetica;fontSize=12;fontColor=default;fillColor=default;" vertex="1" parent="MN59UqQyz3F3yh8Ifb5z-6">
          <mxGeometry x="20" y="80" width="10" height="160" as="geometry" />
        </mxCell>
        <mxCell id="MN59UqQyz3F3yh8Ifb5z-8" value="" style="html=1;points=[[0,0,0,0,5],[0,1,0,0,-5],[1,0,0,0,5],[1,1,0,0,-5]];perimeter=orthogonalPerimeter;outlineConnect=0;targetShapes=umlLifeline;portConstraint=eastwest;newEdgeStyle={&quot;curved&quot;:0,&quot;rounded&quot;:0};strokeColor=default;align=center;verticalAlign=bottom;fontFamily=Helvetica;fontSize=12;fontColor=default;fillColor=default;" vertex="1" parent="MN59UqQyz3F3yh8Ifb5z-6">
          <mxGeometry x="20" y="260" width="10" height="60" as="geometry" />
        </mxCell>
        <mxCell id="MN59UqQyz3F3yh8Ifb5z-9" value="set&lt;span style=&quot;text-align: left; text-wrap: wrap; background-color: rgb(251, 251, 251);&quot;&gt;Budget(),setEnergyGoal()&lt;/span&gt;" style="html=1;verticalAlign=bottom;startArrow=oval;endArrow=block;startSize=8;curved=0;rounded=0;fontFamily=Helvetica;fontSize=12;fontColor=default;" edge="1" parent="1" target="MN59UqQyz3F3yh8Ifb5z-7">
          <mxGeometry relative="1" as="geometry">
            <mxPoint x="185" y="170" as="sourcePoint" />
            <mxPoint x="275" y="170" as="targetPoint" />
          </mxGeometry>
        </mxCell>
        <mxCell id="MN59UqQyz3F3yh8Ifb5z-10" value="&lt;span style=&quot;font-weight: 400; text-wrap-mode: wrap; background-color: initial; text-align: left;&quot;&gt;&lt;b&gt;DashboardActivity&lt;/b&gt;&lt;/span&gt;&lt;span style=&quot;font-weight: 400; text-wrap-mode: wrap; background-color: initial; text-align: left;&quot;&gt;&lt;b&gt;&amp;nbsp;&lt;/b&gt;&lt;/span&gt;" style="text;align=center;fontStyle=1;verticalAlign=middle;spacingLeft=3;spacingRight=3;strokeColor=none;rotatable=0;points=[[0,0.5],[1,0.5]];portConstraint=eastwest;html=1;fontFamily=Helvetica;fontSize=12;fontColor=default;" vertex="1" parent="1">
          <mxGeometry x="290" y="120" width="130" height="20" as="geometry" />
        </mxCell>
        <mxCell id="MN59UqQyz3F3yh8Ifb5z-11" value="" style="shape=umlLifeline;perimeter=lifelinePerimeter;whiteSpace=wrap;html=1;container=1;dropTarget=0;collapsible=0;recursiveResize=0;outlineConnect=0;portConstraint=eastwest;newEdgeStyle={&quot;curved&quot;:0,&quot;rounded&quot;:0};participant=umlControl;strokeColor=default;align=center;verticalAlign=bottom;fontFamily=Helvetica;fontSize=12;fontColor=default;fillColor=default;" vertex="1" parent="1">
          <mxGeometry x="690" y="80" width="40" height="1110" as="geometry" />
        </mxCell>
        <mxCell id="MN59UqQyz3F3yh8Ifb5z-12" value="" style="html=1;points=[[0,0,0,0,5],[0,1,0,0,-5],[1,0,0,0,5],[1,1,0,0,-5]];perimeter=orthogonalPerimeter;outlineConnect=0;targetShapes=umlLifeline;portConstraint=eastwest;newEdgeStyle={&quot;curved&quot;:0,&quot;rounded&quot;:0};strokeColor=default;align=center;verticalAlign=bottom;fontFamily=Helvetica;fontSize=12;fontColor=default;fillColor=default;" vertex="1" parent="MN59UqQyz3F3yh8Ifb5z-11">
          <mxGeometry x="15" y="190" width="10" height="40" as="geometry" />
        </mxCell>
        <mxCell id="MN59UqQyz3F3yh8Ifb5z-13" value="" style="html=1;points=[[0,0,0,0,5],[0,1,0,0,-5],[1,0,0,0,5],[1,1,0,0,-5]];perimeter=orthogonalPerimeter;outlineConnect=0;targetShapes=umlLifeline;portConstraint=eastwest;newEdgeStyle={&quot;curved&quot;:0,&quot;rounded&quot;:0};strokeColor=default;align=center;verticalAlign=bottom;fontFamily=Helvetica;fontSize=12;fontColor=default;fillColor=default;" vertex="1" parent="MN59UqQyz3F3yh8Ifb5z-11">
          <mxGeometry x="15" y="270" width="10" height="40" as="geometry" />
        </mxCell>
        <mxCell id="MN59UqQyz3F3yh8Ifb5z-14" value="&lt;p style=&quot;text-align: center; margin: 0px 0px 0px 4px;&quot;&gt;&lt;span style=&quot;background-color: rgb(255, 255, 255);&quot;&gt;analyseDashboard(&lt;/span&gt;userID,&amp;nbsp;&lt;span style=&quot;text-wrap: wrap; text-align: left; background-color: rgb(251, 251, 251);&quot;&gt;householdID&lt;/span&gt;)&lt;/p&gt;" style="html=1;verticalAlign=bottom;startArrow=oval;endArrow=block;startSize=8;curved=0;rounded=0;fontFamily=Helvetica;fontSize=12;fontColor=default;" edge="1" parent="1">
          <mxGeometry x="0.0294" relative="1" as="geometry">
            <mxPoint x="364.9999999999998" y="360" as="sourcePoint" />
            <mxPoint x="705" y="360" as="targetPoint" />
            <mxPoint x="1" as="offset" />
          </mxGeometry>
        </mxCell>
        <mxCell id="MN59UqQyz3F3yh8Ifb5z-15" value="seekRecomendation()" style="html=1;verticalAlign=bottom;startArrow=oval;endArrow=block;startSize=8;curved=0;rounded=0;fontFamily=Helvetica;fontSize=12;fontColor=default;" edge="1" parent="1">
          <mxGeometry relative="1" as="geometry">
            <mxPoint x="190" y="350" as="sourcePoint" />
            <mxPoint x="350" y="350" as="targetPoint" />
          </mxGeometry>
        </mxCell>
        <mxCell id="MN59UqQyz3F3yh8Ifb5z-16" value="&lt;b style=&quot;text-align: left; text-wrap-mode: wrap;&quot;&gt;DeviceInfoAdapter&lt;/b&gt;" style="text;align=center;fontStyle=1;verticalAlign=middle;spacingLeft=3;spacingRight=3;strokeColor=none;rotatable=0;points=[[0,0.5],[1,0.5]];portConstraint=eastwest;html=1;fontFamily=Helvetica;fontSize=12;fontColor=default;" vertex="1" parent="1">
          <mxGeometry x="642.5" y="120" width="130" height="20" as="geometry" />
        </mxCell>
        <mxCell id="MN59UqQyz3F3yh8Ifb5z-17" value="Recomendation" style="html=1;verticalAlign=bottom;startArrow=oval;startFill=1;endArrow=block;startSize=8;curved=0;rounded=0;fontFamily=Helvetica;fontSize=12;fontColor=default;dashed=1;" edge="1" parent="1" source="MN59UqQyz3F3yh8Ifb5z-13">
          <mxGeometry x="-0.0435" y="16" width="60" relative="1" as="geometry">
            <mxPoint x="510" y="374.33" as="sourcePoint" />
            <mxPoint x="360" y="374.33" as="targetPoint" />
            <Array as="points">
              <mxPoint x="440" y="374.33" />
            </Array>
            <mxPoint x="-1" as="offset" />
          </mxGeometry>
        </mxCell>
        <mxCell id="MN59UqQyz3F3yh8Ifb5z-18" value="Recomendation" style="html=1;verticalAlign=bottom;startArrow=oval;startFill=1;endArrow=block;startSize=8;curved=0;rounded=0;fontFamily=Helvetica;fontSize=12;fontColor=default;dashed=1;" edge="1" parent="1">
          <mxGeometry x="-0.0667" width="60" relative="1" as="geometry">
            <mxPoint x="345" y="390" as="sourcePoint" />
            <mxPoint x="180" y="390" as="targetPoint" />
            <Array as="points">
              <mxPoint x="265" y="390" />
            </Array>
            <mxPoint x="-1" as="offset" />
          </mxGeometry>
        </mxCell>
        <mxCell id="MN59UqQyz3F3yh8Ifb5z-19" value="&lt;span style=&quot;text-align: left; text-wrap: wrap; background-color: rgb(251, 251, 251);&quot;&gt;showProgressOfSaving()&lt;/span&gt;" style="html=1;verticalAlign=bottom;startArrow=oval;endArrow=block;startSize=8;curved=0;rounded=0;fontFamily=Helvetica;fontSize=12;fontColor=default;" edge="1" parent="1">
          <mxGeometry relative="1" as="geometry">
            <mxPoint x="190" y="280" as="sourcePoint" />
            <mxPoint x="355" y="280" as="targetPoint" />
          </mxGeometry>
        </mxCell>
        <mxCell id="MN59UqQyz3F3yh8Ifb5z-20" value="findDashboard(userID,&amp;nbsp;&lt;span style=&quot;text-align: left; text-wrap: wrap; background-color: rgb(251, 251, 251);&quot;&gt;householdID&lt;/span&gt;)" style="html=1;verticalAlign=bottom;startArrow=oval;endArrow=block;startSize=8;curved=0;rounded=0;fontFamily=Helvetica;fontSize=12;fontColor=default;" edge="1" parent="1">
          <mxGeometry x="-0.0375" relative="1" as="geometry">
            <mxPoint x="362.9999999999998" y="290" as="sourcePoint" />
            <mxPoint x="710" y="290" as="targetPoint" />
            <mxPoint as="offset" />
          </mxGeometry>
        </mxCell>
        <mxCell id="MN59UqQyz3F3yh8Ifb5z-21" value="Dashboard" style="html=1;verticalAlign=bottom;startArrow=oval;startFill=1;endArrow=block;startSize=8;curved=0;rounded=0;fontFamily=Helvetica;fontSize=12;fontColor=default;dashed=1;" edge="1" parent="1" source="MN59UqQyz3F3yh8Ifb5z-12">
          <mxGeometry x="0.6522" y="20" width="60" relative="1" as="geometry">
            <mxPoint x="702.5" y="300" as="sourcePoint" />
            <mxPoint x="360" y="300" as="targetPoint" />
            <Array as="points">
              <mxPoint x="445" y="300" />
            </Array>
            <mxPoint as="offset" />
          </mxGeometry>
        </mxCell>
        <mxCell id="MN59UqQyz3F3yh8Ifb5z-22" value="ProgessOfSaving" style="html=1;verticalAlign=bottom;startArrow=oval;startFill=1;endArrow=block;startSize=8;curved=0;rounded=0;fontFamily=Helvetica;fontSize=12;fontColor=default;dashed=1;" edge="1" parent="1">
          <mxGeometry x="-0.0667" width="60" relative="1" as="geometry">
            <mxPoint x="349.9999999999998" y="310" as="sourcePoint" />
            <mxPoint x="185" y="310" as="targetPoint" />
            <Array as="points">
              <mxPoint x="265" y="310" />
            </Array>
            <mxPoint x="-1" as="offset" />
          </mxGeometry>
        </mxCell>
        <mxCell id="MN59UqQyz3F3yh8Ifb5z-23" value="loop" style="shape=umlFrame;whiteSpace=wrap;html=1;pointerEvents=0;strokeColor=#d79b00;align=center;verticalAlign=bottom;fontFamily=Helvetica;fontSize=12;fillColor=#ffe6cc;" vertex="1" parent="1">
          <mxGeometry x="70" y="490" width="870" height="260" as="geometry" />
        </mxCell>
        <mxCell id="MN59UqQyz3F3yh8Ifb5z-24" value="" style="html=1;points=[[0,0,0,0,5],[0,1,0,0,-5],[1,0,0,0,5],[1,1,0,0,-5]];perimeter=orthogonalPerimeter;outlineConnect=0;targetShapes=umlLifeline;portConstraint=eastwest;newEdgeStyle={&quot;curved&quot;:0,&quot;rounded&quot;:0};strokeColor=default;align=center;verticalAlign=bottom;fontFamily=Helvetica;fontSize=12;fontColor=default;fillColor=default;" vertex="1" parent="1">
          <mxGeometry x="702.5" y="510" width="15" height="120" as="geometry" />
        </mxCell>
        <mxCell id="MN59UqQyz3F3yh8Ifb5z-25" value="" style="html=1;points=[[0,0,0,0,5],[0,1,0,0,-5],[1,0,0,0,5],[1,1,0,0,-5]];perimeter=orthogonalPerimeter;outlineConnect=0;targetShapes=umlLifeline;portConstraint=eastwest;newEdgeStyle={&quot;curved&quot;:0,&quot;rounded&quot;:0};strokeColor=default;align=center;verticalAlign=bottom;fontFamily=Helvetica;fontSize=12;fontColor=default;fillColor=default;" vertex="1" parent="1">
          <mxGeometry x="710" y="540" width="20" height="30" as="geometry" />
        </mxCell>
        <mxCell id="MN59UqQyz3F3yh8Ifb5z-26" value="&lt;span style=&quot;text-wrap: wrap; background-color: rgb(251, 251, 251);&quot;&gt;excessiveUseOfEnergy(userID, householdID)&lt;/span&gt;" style="html=1;align=left;spacingLeft=2;endArrow=block;rounded=0;edgeStyle=orthogonalEdgeStyle;curved=0;rounded=0;fontFamily=Helvetica;fontSize=12;fontColor=default;" edge="1" parent="1" source="MN59UqQyz3F3yh8Ifb5z-24" target="MN59UqQyz3F3yh8Ifb5z-25">
          <mxGeometry x="0.0057" relative="1" as="geometry">
            <mxPoint x="380" y="330" as="sourcePoint" />
            <Array as="points">
              <mxPoint x="750" y="520" />
              <mxPoint x="750" y="550" />
            </Array>
            <mxPoint as="offset" />
          </mxGeometry>
        </mxCell>
        <mxCell id="MN59UqQyz3F3yh8Ifb5z-27" value="break" style="shape=umlFrame;whiteSpace=wrap;html=1;pointerEvents=0;strokeColor=#d79b00;align=center;verticalAlign=bottom;fontFamily=Helvetica;fontSize=12;fillColor=#ffe6cc;" vertex="1" parent="1">
          <mxGeometry x="600" y="580" width="320" height="120" as="geometry" />
        </mxCell>
        <mxCell id="MN59UqQyz3F3yh8Ifb5z-28" value="" style="shape=umlLifeline;perimeter=lifelinePerimeter;whiteSpace=wrap;html=1;container=1;dropTarget=0;collapsible=0;recursiveResize=0;outlineConnect=0;portConstraint=eastwest;newEdgeStyle={&quot;curved&quot;:0,&quot;rounded&quot;:0};participant=umlControl;strokeColor=default;align=center;verticalAlign=bottom;fontFamily=Helvetica;fontSize=12;fontColor=default;fillColor=default;" vertex="1" parent="1">
          <mxGeometry x="810" y="80" width="40" height="1120" as="geometry" />
        </mxCell>
        <mxCell id="MN59UqQyz3F3yh8Ifb5z-29" value="" style="html=1;points=[[0,0,0,0,5],[0,1,0,0,-5],[1,0,0,0,5],[1,1,0,0,-5]];perimeter=orthogonalPerimeter;outlineConnect=0;targetShapes=umlLifeline;portConstraint=eastwest;newEdgeStyle={&quot;curved&quot;:0,&quot;rounded&quot;:0};strokeColor=default;align=center;verticalAlign=bottom;fontFamily=Helvetica;fontSize=12;fontColor=default;fillColor=default;" vertex="1" parent="MN59UqQyz3F3yh8Ifb5z-28">
          <mxGeometry x="15" y="507.5" width="10" height="82.5" as="geometry" />
        </mxCell>
        <mxCell id="MN59UqQyz3F3yh8Ifb5z-30" value="&lt;span style=&quot;text-wrap: wrap;&quot;&gt;NotificationController&lt;/span&gt;" style="text;align=center;fontStyle=1;verticalAlign=middle;spacingLeft=3;spacingRight=3;strokeColor=none;rotatable=0;points=[[0,0.5],[1,0.5]];portConstraint=eastwest;html=1;fontFamily=Helvetica;fontSize=12;fontColor=default;" vertex="1" parent="1">
          <mxGeometry x="780" y="120" width="130" height="20" as="geometry" />
        </mxCell>
        <mxCell id="MN59UqQyz3F3yh8Ifb5z-31" value="&lt;p style=&quot;text-align: center; margin: 0px 0px 0px 4px;&quot;&gt;&lt;span style=&quot;background-color: rgb(255, 255, 255);&quot;&gt;sendNotifcation()&lt;/span&gt;&lt;/p&gt;" style="html=1;verticalAlign=bottom;startArrow=oval;endArrow=block;startSize=8;curved=0;rounded=0;fontFamily=Helvetica;fontSize=12;fontColor=default;entryX=0;entryY=0;entryDx=0;entryDy=5;entryPerimeter=0;" edge="1" parent="1">
          <mxGeometry x="0.0323" relative="1" as="geometry">
            <mxPoint x="717.5" y="600" as="sourcePoint" />
            <mxPoint x="825" y="600" as="targetPoint" />
            <mxPoint as="offset" />
          </mxGeometry>
        </mxCell>
        <mxCell id="MN59UqQyz3F3yh8Ifb5z-32" value="[excessive==true&lt;div&gt;&lt;span style=&quot;background-color: initial;&quot;&gt;or month is over]&lt;/span&gt;&lt;/div&gt;" style="text;html=1;align=center;verticalAlign=middle;resizable=0;points=[];autosize=1;strokeColor=none;fillColor=none;fontFamily=Helvetica;fontSize=12;fontColor=default;" vertex="1" parent="1">
          <mxGeometry x="600" y="620" width="110" height="40" as="geometry" />
        </mxCell>
        <mxCell id="MN59UqQyz3F3yh8Ifb5z-33" value="[every hour]" style="text;html=1;align=center;verticalAlign=middle;resizable=0;points=[];autosize=1;strokeColor=none;fillColor=none;fontFamily=Helvetica;fontSize=12;fontColor=default;" vertex="1" parent="1">
          <mxGeometry x="60" y="520" width="90" height="30" as="geometry" />
        </mxCell>
        <mxCell id="MN59UqQyz3F3yh8Ifb5z-34" value="Notification" style="html=1;verticalAlign=bottom;startArrow=oval;startFill=1;endArrow=block;startSize=8;curved=0;rounded=0;fontFamily=Helvetica;fontSize=12;fontColor=default;dashed=1;" edge="1" parent="1">
          <mxGeometry x="-0.0667" width="60" relative="1" as="geometry">
            <mxPoint x="825" y="659" as="sourcePoint" />
            <mxPoint x="185" y="659" as="targetPoint" />
            <Array as="points">
              <mxPoint x="345" y="659" />
              <mxPoint x="275" y="659" />
            </Array>
            <mxPoint x="-1" as="offset" />
          </mxGeometry>
        </mxCell>
        <mxCell id="MN59UqQyz3F3yh8Ifb5z-35" value="sd Setting Up Energy Saving Goals" style="shape=umlFrame;whiteSpace=wrap;html=1;pointerEvents=0;strokeColor=#9673a6;align=center;verticalAlign=bottom;fontFamily=Helvetica;fontSize=12;fillColor=#e1d5e7;width=200;height=30;" vertex="1" parent="1">
          <mxGeometry x="-10" y="10" width="1470" height="1130" as="geometry" />
        </mxCell>
        <mxCell id="MN59UqQyz3F3yh8Ifb5z-36" value="opt" style="shape=umlFrame;whiteSpace=wrap;html=1;pointerEvents=0;strokeColor=#6c8ebf;align=center;verticalAlign=bottom;fontFamily=Helvetica;fontSize=12;fillColor=#dae8fc;width=50;height=30;" vertex="1" parent="1">
          <mxGeometry x="80" y="410" width="570" height="70" as="geometry" />
        </mxCell>
        <mxCell id="MN59UqQyz3F3yh8Ifb5z-37" value="returnToDashBoard()" style="html=1;verticalAlign=bottom;startArrow=oval;endArrow=block;startSize=8;curved=0;rounded=0;fontFamily=Helvetica;fontSize=12;fontColor=default;" edge="1" parent="1">
          <mxGeometry relative="1" as="geometry">
            <mxPoint x="190" y="229.17" as="sourcePoint" />
            <mxPoint x="350" y="229.17" as="targetPoint" />
          </mxGeometry>
        </mxCell>
        <mxCell id="MN59UqQyz3F3yh8Ifb5z-38" value="" style="shape=umlLifeline;perimeter=lifelinePerimeter;whiteSpace=wrap;html=1;container=1;dropTarget=0;collapsible=0;recursiveResize=0;outlineConnect=0;portConstraint=eastwest;newEdgeStyle={&quot;curved&quot;:0,&quot;rounded&quot;:0};participant=umlControl;strokeColor=default;align=center;verticalAlign=bottom;fontFamily=Helvetica;fontSize=12;fontColor=default;fillColor=default;" vertex="1" parent="1">
          <mxGeometry x="570" y="80" width="40" height="1140" as="geometry" />
        </mxCell>
        <mxCell id="MN59UqQyz3F3yh8Ifb5z-39" value="" style="html=1;points=[[0,0,0,0,5],[0,1,0,0,-5],[1,0,0,0,5],[1,1,0,0,-5]];perimeter=orthogonalPerimeter;outlineConnect=0;targetShapes=umlLifeline;portConstraint=eastwest;newEdgeStyle={&quot;curved&quot;:0,&quot;rounded&quot;:0};strokeColor=default;align=center;verticalAlign=bottom;fontFamily=Helvetica;fontSize=12;fontColor=default;fillColor=default;" vertex="1" parent="MN59UqQyz3F3yh8Ifb5z-38">
          <mxGeometry x="15" y="80" width="10" height="50" as="geometry" />
        </mxCell>
        <mxCell id="MN59UqQyz3F3yh8Ifb5z-40" value="" style="html=1;points=[[0,0,0,0,5],[0,1,0,0,-5],[1,0,0,0,5],[1,1,0,0,-5]];perimeter=orthogonalPerimeter;outlineConnect=0;targetShapes=umlLifeline;portConstraint=eastwest;newEdgeStyle={&quot;curved&quot;:0,&quot;rounded&quot;:0};strokeColor=default;align=center;verticalAlign=bottom;fontFamily=Helvetica;fontSize=12;fontColor=default;fillColor=default;" vertex="1" parent="MN59UqQyz3F3yh8Ifb5z-38">
          <mxGeometry x="15" y="360" width="10" height="30" as="geometry" />
        </mxCell>
        <mxCell id="MN59UqQyz3F3yh8Ifb5z-41" value="&lt;span style=&quot;text-wrap: wrap;&quot;&gt;AccountController&lt;/span&gt;" style="text;align=center;fontStyle=1;verticalAlign=middle;spacingLeft=3;spacingRight=3;strokeColor=none;rotatable=0;points=[[0,0.5],[1,0.5]];portConstraint=eastwest;html=1;fontFamily=Helvetica;fontSize=12;fontColor=default;" vertex="1" parent="1">
          <mxGeometry x="537.5" y="120" width="105" height="20" as="geometry" />
        </mxCell>
        <mxCell id="MN59UqQyz3F3yh8Ifb5z-42" value="set&lt;span style=&quot;text-align: left; text-wrap: wrap; background-color: rgb(251, 251, 251);&quot;&gt;Budget(userID),setEnergyGoal(userID)&lt;/span&gt;" style="html=1;verticalAlign=bottom;startArrow=oval;endArrow=block;startSize=8;curved=0;rounded=0;fontFamily=Helvetica;fontSize=12;fontColor=default;" edge="1" parent="1" target="MN59UqQyz3F3yh8Ifb5z-39">
          <mxGeometry relative="1" as="geometry">
            <mxPoint x="360" y="180" as="sourcePoint" />
            <mxPoint x="535" y="180" as="targetPoint" />
          </mxGeometry>
        </mxCell>
        <mxCell id="MN59UqQyz3F3yh8Ifb5z-43" value="" style="html=1;points=[[0,0,0,0,5],[0,1,0,0,-5],[1,0,0,0,5],[1,1,0,0,-5]];perimeter=orthogonalPerimeter;outlineConnect=0;targetShapes=umlLifeline;portConstraint=eastwest;newEdgeStyle={&quot;curved&quot;:0,&quot;rounded&quot;:0};strokeColor=default;align=center;verticalAlign=bottom;fontFamily=Helvetica;fontSize=12;fontColor=default;fillColor=default;" vertex="1" parent="1">
          <mxGeometry x="350" y="440" width="10" height="30" as="geometry" />
        </mxCell>
        <mxCell id="MN59UqQyz3F3yh8Ifb5z-44" value="set&lt;span style=&quot;text-align: left; text-wrap: wrap; background-color: rgb(251, 251, 251);&quot;&gt;Budget(),setEnergyGoal()&lt;/span&gt;" style="html=1;verticalAlign=bottom;startArrow=oval;endArrow=block;startSize=8;curved=0;rounded=0;fontFamily=Helvetica;fontSize=12;fontColor=default;" edge="1" parent="1">
          <mxGeometry relative="1" as="geometry">
            <mxPoint x="185" y="450" as="sourcePoint" />
            <mxPoint x="350" y="450" as="targetPoint" />
          </mxGeometry>
        </mxCell>
        <mxCell id="MN59UqQyz3F3yh8Ifb5z-45" value="set&lt;span style=&quot;text-align: left; text-wrap: wrap; background-color: rgb(251, 251, 251);&quot;&gt;Budget(userID),setEnergyGoal(userID)&lt;/span&gt;" style="html=1;verticalAlign=bottom;startArrow=oval;endArrow=block;startSize=8;curved=0;rounded=0;fontFamily=Helvetica;fontSize=12;fontColor=default;" edge="1" parent="1">
          <mxGeometry relative="1" as="geometry">
            <mxPoint x="360" y="454.29" as="sourcePoint" />
            <mxPoint x="585" y="454.29" as="targetPoint" />
          </mxGeometry>
        </mxCell>
        <mxCell id="MN59UqQyz3F3yh8Ifb5z-46" value="opt" style="shape=umlFrame;whiteSpace=wrap;html=1;pointerEvents=0;strokeColor=#6c8ebf;align=center;verticalAlign=bottom;fontFamily=Helvetica;fontSize=12;fillColor=#dae8fc;width=50;height=30;" vertex="1" parent="1">
          <mxGeometry x="110" y="200" width="300" height="60" as="geometry" />
        </mxCell>
        <mxCell id="MN59UqQyz3F3yh8Ifb5z-47" value="" style="shape=umlLifeline;perimeter=lifelinePerimeter;whiteSpace=wrap;html=1;container=1;dropTarget=0;collapsible=0;recursiveResize=0;outlineConnect=0;portConstraint=eastwest;newEdgeStyle={&quot;curved&quot;:0,&quot;rounded&quot;:0};participant=umlBoundary;" vertex="1" parent="1">
          <mxGeometry x="1130" y="80" width="50" height="1090" as="geometry" />
        </mxCell>
        <mxCell id="MN59UqQyz3F3yh8Ifb5z-48" value="" style="html=1;points=[[0,0,0,0,5],[0,1,0,0,-5],[1,0,0,0,5],[1,1,0,0,-5]];perimeter=orthogonalPerimeter;outlineConnect=0;targetShapes=umlLifeline;portConstraint=eastwest;newEdgeStyle={&quot;curved&quot;:0,&quot;rounded&quot;:0};strokeColor=default;align=center;verticalAlign=bottom;fontFamily=Helvetica;fontSize=12;fontColor=default;fillColor=default;" vertex="1" parent="MN59UqQyz3F3yh8Ifb5z-47">
          <mxGeometry x="20" y="660" width="10" height="170" as="geometry" />
        </mxCell>
        <mxCell id="MN59UqQyz3F3yh8Ifb5z-51" value=":&lt;b style=&quot;text-wrap: wrap;&quot;&gt;HouseholdManagerUI&lt;/b&gt;&lt;br&gt;&lt;div&gt;&lt;b style=&quot;text-wrap: wrap;&quot;&gt;&lt;br&gt;&lt;/b&gt;&lt;/div&gt;" style="text;align=center;fontStyle=1;verticalAlign=middle;spacingLeft=3;spacingRight=3;strokeColor=none;rotatable=0;points=[[0,0.5],[1,0.5]];portConstraint=eastwest;html=1;fontFamily=Helvetica;fontSize=12;fontColor=default;" vertex="1" parent="1">
          <mxGeometry x="1090" y="120" width="130" height="20" as="geometry" />
        </mxCell>
        <mxCell id="MN59UqQyz3F3yh8Ifb5z-54" value="&lt;span style=&quot;font-size: 12px; text-align: left; text-wrap: wrap; background-color: rgb(251, 251, 251);&quot;&gt;comparisionWithSimilarHousehold&lt;/span&gt;&lt;span style=&quot;color: rgba(0, 0, 0, 0); font-family: monospace; font-size: 0px; text-align: start; background-color: rgb(251, 251, 251);&quot;&gt;%3CmxGraphModel%3E%3Croot%3E%3CmxCell%20id%3D%220%22%2F%3E%3CmxCell%20id%3D%221%22%20parent%3D%220%22%2F%3E%3CmxCell%20id%3D%222%22%20value%3D%22%26lt%3Bspan%20style%3D%26quot%3Btext-wrap%3A%20wrap%3B%26quot%3B%26gt%3BNotificationController%26lt%3B%2Fspan%26gt%3B%22%20style%3D%22text%3Balign%3Dcenter%3BfontStyle%3D1%3BverticalAlign%3Dmiddle%3BspacingLeft%3D3%3BspacingRight%3D3%3BstrokeColor%3Dnone%3Brotatable%3D0%3Bpoints%3D%5B%5B0%2C0.5%5D%2C%5B1%2C0.5%5D%5D%3BportConstraint%3Deastwest%3Bhtml%3D1%3BfontFamily%3DHelvetica%3BfontSize%3D12%3BfontColor%3Ddefault%3B%22%20vertex%3D%221%22%20parent%3D%221%22%3E%3CmxGeometry%20x%3D%22780%22%20y%3D%22120%22%20width%3D%22130%22%20height%3D%2220%22%20as%3D%22geometry%22%2F%3E%3C%2FmxCell%3E%3C%2Froot%3E%3C%2FmxGraphModel%3E&lt;/span&gt;" style="html=1;verticalAlign=bottom;endArrow=block;curved=0;rounded=0;" edge="1" parent="1" target="MN59UqQyz3F3yh8Ifb5z-48">
          <mxGeometry width="80" relative="1" as="geometry">
            <mxPoint x="190" y="810" as="sourcePoint" />
            <mxPoint x="1030" y="810" as="targetPoint" />
          </mxGeometry>
        </mxCell>
        <mxCell id="mbJIjNH2G1-koK_bme_F-1" value="" style="shape=umlLifeline;perimeter=lifelinePerimeter;whiteSpace=wrap;html=1;container=1;dropTarget=0;collapsible=0;recursiveResize=0;outlineConnect=0;portConstraint=eastwest;newEdgeStyle={&quot;curved&quot;:0,&quot;rounded&quot;:0};participant=umlControl;strokeColor=default;align=center;verticalAlign=bottom;fontFamily=Helvetica;fontSize=12;fontColor=default;fillColor=default;" vertex="1" parent="1">
          <mxGeometry x="1010" y="80" width="40" height="1120" as="geometry" />
        </mxCell>
        <mxCell id="mbJIjNH2G1-koK_bme_F-2" value="" style="html=1;points=[[0,0,0,0,5],[0,1,0,0,-5],[1,0,0,0,5],[1,1,0,0,-5]];perimeter=orthogonalPerimeter;outlineConnect=0;targetShapes=umlLifeline;portConstraint=eastwest;newEdgeStyle={&quot;curved&quot;:0,&quot;rounded&quot;:0};strokeColor=default;align=center;verticalAlign=bottom;fontFamily=Helvetica;fontSize=12;fontColor=default;fillColor=default;" vertex="1" parent="mbJIjNH2G1-koK_bme_F-1">
          <mxGeometry x="15" y="770" width="10" height="40" as="geometry" />
        </mxCell>
        <mxCell id="mbJIjNH2G1-koK_bme_F-3" value="&lt;span style=&quot;text-wrap: wrap;&quot;&gt;HouseHoldController&lt;/span&gt;" style="text;align=center;fontStyle=1;verticalAlign=middle;spacingLeft=3;spacingRight=3;strokeColor=none;rotatable=0;points=[[0,0.5],[1,0.5]];portConstraint=eastwest;html=1;fontFamily=Helvetica;fontSize=12;fontColor=default;" vertex="1" parent="1">
          <mxGeometry x="950" y="120" width="130" height="20" as="geometry" />
        </mxCell>
        <mxCell id="mbJIjNH2G1-koK_bme_F-4" value="&lt;span style=&quot;font-size: 12px; text-align: left; text-wrap: wrap; background-color: rgb(251, 251, 251);&quot;&gt;comparisionWithSimilarHousehold()&lt;/span&gt;&lt;span style=&quot;color: rgba(0, 0, 0, 0); font-family: monospace; font-size: 0px; text-align: start; background-color: rgb(251, 251, 251);&quot;&gt;%3CmxGraphModel%3E%3Croot%3E%3CmxCell%20id%3D%220%22%2F%3E%3CmxCell%20id%3D%221%22%20parent%3D%220%22%2F%3E%3CmxCell%20id%3D%222%22%20value%3D%22%26lt%3Bspan%20style%3D%26quot%3Btext-wrap%3A%20wrap%3B%26quot%3B%26gt%3BNotificationController%26lt%3B%2Fspan%26gt%3B%22%20style%3D%22text%3Balign%3Dcenter%3BfontStyle%3D1%3BverticalAlign%3Dmiddle%3BspacingLeft%3D3%3BspacingRight%3D3%3BstrokeColor%3Dnone%3Brotatable%3D0%3Bpoints%3D%5B%5B0%2C0.5%5D%2C%5B1%2C0.5%5D%5D%3BportConstraint%3Deastwest%3Bhtml%3D1%3BfontFamily%3DHelvetica%3BfontSize%3D12%3BfontColor%3Ddefault%3B%22%20vertex%3D%221%22%20parent%3D%221%22%3E%3CmxGeometry%20x%3D%22780%22%20y%3D%22120%22%20width%3D%22130%22%20height%3D%2220%22%20as%3D%22geometry%22%2F%3E%3C%2FmxCell%3E%3C%2Froot%3E%3C%2FmxGraphModel%3E&lt;/span&gt;" style="html=1;verticalAlign=bottom;endArrow=block;curved=0;rounded=0;entryX=1;entryY=0;entryDx=0;entryDy=5;entryPerimeter=0;" edge="1" parent="1" source="MN59UqQyz3F3yh8Ifb5z-48" target="mbJIjNH2G1-koK_bme_F-2">
          <mxGeometry x="0.3043" y="-10" width="80" relative="1" as="geometry">
            <mxPoint x="1155" y="850" as="sourcePoint" />
            <mxPoint x="1040" y="850" as="targetPoint" />
            <mxPoint as="offset" />
          </mxGeometry>
        </mxCell>
        <mxCell id="mbJIjNH2G1-koK_bme_F-5" value="" style="html=1;verticalAlign=bottom;endArrow=block;curved=0;rounded=0;exitX=1;exitY=1;exitDx=0;exitDy=-5;exitPerimeter=0;dashed=1;" edge="1" parent="1" source="mbJIjNH2G1-koK_bme_F-2" target="MN59UqQyz3F3yh8Ifb5z-48">
          <mxGeometry x="0.3043" y="-10" width="80" relative="1" as="geometry">
            <mxPoint x="1160" y="865" as="sourcePoint" />
            <mxPoint x="1045" y="865" as="targetPoint" />
            <mxPoint as="offset" />
          </mxGeometry>
        </mxCell>
        <mxCell id="mbJIjNH2G1-koK_bme_F-6" value="result" style="edgeLabel;html=1;align=center;verticalAlign=middle;resizable=0;points=[];" connectable="0" vertex="1" parent="mbJIjNH2G1-koK_bme_F-5">
          <mxGeometry x="-0.0443" y="-3" relative="1" as="geometry">
            <mxPoint as="offset" />
          </mxGeometry>
        </mxCell>
      </root>
    </mxGraphModel>
  </diagram>
</mxfile>
